<mxfile host="app.diagrams.net" modified="2023-10-16T01:38:11.541Z" agent="Mozilla/5.0 (Windows NT 10.0; Win64; x64; rv:109.0) Gecko/20100101 Firefox/118.0" etag="FxzrJgoQggWTo0cRQ4z2" version="22.0.4" type="github">
  <diagram id="C5RBs43oDa-KdzZeNtuy" name="Page-1">
    <mxGraphModel dx="880" dy="470" grid="1" gridSize="10" guides="1" tooltips="1" connect="1" arrows="1" fold="1" page="1" pageScale="1" pageWidth="827" pageHeight="1169" math="0" shadow="0">
      <root>
        <mxCell id="WIyWlLk6GJQsqaUBKTNV-0" />
        <mxCell id="WIyWlLk6GJQsqaUBKTNV-1" parent="WIyWlLk6GJQsqaUBKTNV-0" />
        <mxCell id="zH6Go8k_SZB6BX6y1vGW-6" style="edgeStyle=orthogonalEdgeStyle;rounded=0;orthogonalLoop=1;jettySize=auto;html=1;entryX=0.5;entryY=0;entryDx=0;entryDy=0;" edge="1" parent="WIyWlLk6GJQsqaUBKTNV-1" source="zH6Go8k_SZB6BX6y1vGW-0" target="zH6Go8k_SZB6BX6y1vGW-1">
          <mxGeometry relative="1" as="geometry" />
        </mxCell>
        <mxCell id="zH6Go8k_SZB6BX6y1vGW-0" value="start" style="strokeWidth=2;html=1;shape=mxgraph.flowchart.terminator;whiteSpace=wrap;" vertex="1" parent="WIyWlLk6GJQsqaUBKTNV-1">
          <mxGeometry x="314" y="40" width="86" height="50" as="geometry" />
        </mxCell>
        <mxCell id="zH6Go8k_SZB6BX6y1vGW-7" style="edgeStyle=orthogonalEdgeStyle;rounded=0;orthogonalLoop=1;jettySize=auto;html=1;entryX=0.5;entryY=0;entryDx=0;entryDy=0;" edge="1" parent="WIyWlLk6GJQsqaUBKTNV-1" source="zH6Go8k_SZB6BX6y1vGW-1" target="zH6Go8k_SZB6BX6y1vGW-2">
          <mxGeometry relative="1" as="geometry" />
        </mxCell>
        <mxCell id="zH6Go8k_SZB6BX6y1vGW-1" value="&lt;div&gt;float phi=3.14&lt;/div&gt;&lt;div&gt;integer r&lt;/div&gt;&lt;div&gt;float luas&lt;br&gt;&lt;/div&gt;" style="rounded=1;whiteSpace=wrap;html=1;absoluteArcSize=1;arcSize=14;strokeWidth=2;" vertex="1" parent="WIyWlLk6GJQsqaUBKTNV-1">
          <mxGeometry x="307" y="120" width="100" height="70" as="geometry" />
        </mxCell>
        <mxCell id="zH6Go8k_SZB6BX6y1vGW-8" style="edgeStyle=orthogonalEdgeStyle;rounded=0;orthogonalLoop=1;jettySize=auto;html=1;entryX=0.5;entryY=0;entryDx=0;entryDy=0;" edge="1" parent="WIyWlLk6GJQsqaUBKTNV-1" source="zH6Go8k_SZB6BX6y1vGW-2" target="zH6Go8k_SZB6BX6y1vGW-3">
          <mxGeometry relative="1" as="geometry" />
        </mxCell>
        <mxCell id="zH6Go8k_SZB6BX6y1vGW-2" value="masukan jari-jari" style="shape=parallelogram;html=1;strokeWidth=2;perimeter=parallelogramPerimeter;whiteSpace=wrap;rounded=1;arcSize=12;size=0.23;" vertex="1" parent="WIyWlLk6GJQsqaUBKTNV-1">
          <mxGeometry x="277" y="230" width="160" height="50" as="geometry" />
        </mxCell>
        <mxCell id="zH6Go8k_SZB6BX6y1vGW-9" style="edgeStyle=orthogonalEdgeStyle;rounded=0;orthogonalLoop=1;jettySize=auto;html=1;entryX=0.5;entryY=0;entryDx=0;entryDy=0;" edge="1" parent="WIyWlLk6GJQsqaUBKTNV-1" source="zH6Go8k_SZB6BX6y1vGW-3" target="zH6Go8k_SZB6BX6y1vGW-4">
          <mxGeometry relative="1" as="geometry" />
        </mxCell>
        <mxCell id="zH6Go8k_SZB6BX6y1vGW-3" value="luas=phi&quot;r&quot;r" style="rounded=1;whiteSpace=wrap;html=1;absoluteArcSize=1;arcSize=14;strokeWidth=2;" vertex="1" parent="WIyWlLk6GJQsqaUBKTNV-1">
          <mxGeometry x="307" y="320" width="100" height="60" as="geometry" />
        </mxCell>
        <mxCell id="zH6Go8k_SZB6BX6y1vGW-4" value="tampilkan luas lingkaran" style="shape=parallelogram;html=1;strokeWidth=2;perimeter=parallelogramPerimeter;whiteSpace=wrap;rounded=1;arcSize=12;size=0.23;" vertex="1" parent="WIyWlLk6GJQsqaUBKTNV-1">
          <mxGeometry x="258" y="420" width="198" height="50" as="geometry" />
        </mxCell>
        <mxCell id="zH6Go8k_SZB6BX6y1vGW-5" value="end" style="strokeWidth=2;html=1;shape=mxgraph.flowchart.terminator;whiteSpace=wrap;" vertex="1" parent="WIyWlLk6GJQsqaUBKTNV-1">
          <mxGeometry x="310.5" y="500" width="93" height="50" as="geometry" />
        </mxCell>
        <mxCell id="zH6Go8k_SZB6BX6y1vGW-10" style="edgeStyle=orthogonalEdgeStyle;rounded=0;orthogonalLoop=1;jettySize=auto;html=1;entryX=0.5;entryY=0;entryDx=0;entryDy=0;entryPerimeter=0;" edge="1" parent="WIyWlLk6GJQsqaUBKTNV-1" source="zH6Go8k_SZB6BX6y1vGW-4" target="zH6Go8k_SZB6BX6y1vGW-5">
          <mxGeometry relative="1" as="geometry" />
        </mxCell>
      </root>
    </mxGraphModel>
  </diagram>
</mxfile>
